<?xml version="1.0" encoding="UTF-8" standalone="no"?>
<!-- Created with Inkscape (http://www.inkscape.org/) -->

<svg
   xmlns:dc="http://purl.org/dc/elements/1.1/"
   xmlns:cc="http://creativecommons.org/ns#"
   xmlns:rdf="http://www.w3.org/1999/02/22-rdf-syntax-ns#"
   xmlns:svg="http://www.w3.org/2000/svg"
   xmlns="http://www.w3.org/2000/svg"
   xmlns:sodipodi="http://sodipodi.sourceforge.net/DTD/sodipodi-0.dtd"
   xmlns:inkscape="http://www.inkscape.org/namespaces/inkscape"
   width="210mm"
   height="297mm"
   viewBox="0 0 210 297"
   version="1.1"
   id="svg1849"
   inkscape:version="0.92.4 (5da689c313, 2019-01-14)"
   sodipodi:docname="cp5.svg">
  <defs
     id="defs1843" />
  <sodipodi:namedview
     id="base"
     pagecolor="#ffffff"
     bordercolor="#666666"
     borderopacity="1.0"
     inkscape:pageopacity="0.0"
     inkscape:pageshadow="2"
     inkscape:zoom="1"
     inkscape:cx="252.11322"
     inkscape:cy="398.0834"
     inkscape:document-units="mm"
     inkscape:current-layer="layer1"
     showgrid="true"
     inkscape:window-width="1920"
     inkscape:window-height="1017"
     inkscape:window-x="-8"
     inkscape:window-y="-8"
     inkscape:window-maximized="1"
     inkscape:snap-to-guides="false"
     inkscape:pagecheckerboard="true">
    <inkscape:grid
       type="xygrid"
       id="grid8574" />
  </sodipodi:namedview>
  <metadata
     id="metadata1846">
    <rdf:RDF>
      <cc:Work
         rdf:about="">
        <dc:format>image/svg+xml</dc:format>
        <dc:type
           rdf:resource="http://purl.org/dc/dcmitype/StillImage" />
        <dc:title></dc:title>
      </cc:Work>
    </rdf:RDF>
  </metadata>
  <g
     inkscape:label="Layer 1"
     inkscape:groupmode="layer"
     id="layer1">
    <path
       style="display:inline;fill:#ffffff;stroke-width:0.682;stroke:#ffffff;stroke-opacity:1;opacity:0.447;stroke-miterlimit:4;stroke-dasharray:none;fill-opacity:1"
       d="m 150.64817,284.71153 c -0.0878,-0.45769 -0.22598,-2.06897 -0.30724,-3.58063 -0.47873,-8.92005 -0.91942,-12.03858 -1.95355,-13.82408 -0.31688,-0.54712 -0.54414,-1.17633 -0.50501,-1.39825 0.0391,-0.22194 -0.18427,-1.25026 -0.49647,-2.28522 -1.09386,-3.62659 -1.13717,-4.70272 -0.36541,-9.0796 0.67242,-3.81343 0.68084,-4.03863 0.1749,-4.64866 -2.15174,-2.5941 -7.53727,-8.51581 -9.00378,-9.90015 -0.98101,-0.92603 -2.17376,-1.84087 -2.65059,-2.03294 -0.47682,-0.19209 -1.07951,-0.62617 -1.3393,-0.96464 -0.25978,-0.33846 -2.59064,-2.13825 -5.17966,-3.99954 -5.35003,-3.84625 -6.54032,-5.14799 -8.79519,-9.61887 -1.37661,-2.72953 -4.40934,-7.42445 -11.10512,-17.19171 -3.41807,-4.986 -3.96696,-5.64435 -6.01811,-7.21822 -2.71697,-2.08475 -3.368389,-2.93313 -3.159941,-4.11532 0.368111,-2.08766 2.452371,-3.56343 5.266171,-3.72876 0.7833,-0.0459 1.43969,-0.17173 1.45864,-0.27933 0.0194,-0.10754 -0.50831,-0.84568 -1.17175,-1.64021 -0.66343,-0.79454 -1.42545,-2.03487 -1.69335,-2.75633 -0.26789,-0.72145 -0.67142,-1.50325 -0.89673,-1.73738 -1.11747,-1.16118 -5.265235,-9.79269 -7.714111,-16.05307 -1.048275,-2.67985 -2.155917,-8.06381 -2.208629,-10.73548 -0.03048,-1.54505 0.04665,-1.87238 0.637019,-2.70356 0.815302,-1.14782 2.614247,-1.98002 4.143945,-1.91694 2.255986,0.093 4.718506,2.55003 6.868126,6.85284 0.92576,1.853 4.07517,6.85348 6.49503,10.31242 0.84797,1.21212 2.19845,2.68179 3.12566,3.40164 1.75912,1.36561 1.76664,1.33283 0.25497,-1.10783 -0.611,-0.98643 -1.05337,-2.15234 -1.90728,-5.0268 -0.77742,-2.61695 -0.56342,-4.27992 0.80202,-6.23246 1.53187,-2.1905 3.32898,-3.23375 6.73362,-3.90898 4.28705,-0.85026 5.33511,-0.77998 7.2974,0.48925 0.87669,0.56704 1.69444,1.1559 1.81727,1.3086 0.38917,0.48383 0.94257,0.42402 1.03711,-0.11202 0.10599,-0.60105 1.57586,-2.18239 2.58821,-2.78446 1.33436,-0.7936 3.56948,-1.3278 5.50231,-1.31509 1.69788,0.0112 2.16063,0.11966 3.65757,0.8577 1.52157,0.75017 1.93259,1.14878 3.665,3.55428 1.07318,1.49016 1.96562,2.71191 1.9832,2.71503 0.0175,0.004 0.30392,-0.64724 0.63631,-1.44519 0.73803,-1.7717 2.09052,-3.22447 3.78063,-4.06092 1.73558,-0.85896 4.19779,-0.68626 7.04045,0.49366 1.9268,0.79981 2.14404,0.97872 3.48687,2.87195 0.78761,1.11048 2.18467,3.69924 3.10456,5.75286 1.34804,3.00947 2.57301,5.03228 6.31439,10.42711 2.55302,3.68132 5.46885,8.25766 6.47962,10.16966 1.01075,1.91202 2.59856,4.90015 3.52848,6.64028 1.49622,2.79982 2.72057,5.51119 7.10018,15.72355 0.62143,1.44905 1.72621,3.57825 2.45508,4.73153 1.84757,2.9234 3.59619,6.48373 4.98372,10.14727 0.64987,1.7159 2.45978,5.71092 4.02199,8.87782 1.56223,3.16692 2.82043,5.87124 2.79604,6.0096 -0.0751,0.42579 -1.76512,-0.0224 -3.83835,-1.01778 -5.95274,-2.85811 -9.79278,-3.53339 -17.64466,-3.10312 -2.91391,0.15978 -3.70237,0.28337 -7.29426,1.14286 -0.53483,0.128 -1.76628,0.34667 -2.73658,0.48558 -2.18283,0.31341 -4.01261,0.81562 -4.06557,1.11591 -0.0219,0.12457 -0.19635,0.19942 -0.38754,0.16642 -0.67986,-0.1178 -5.24721,1.50665 -6.28998,2.2368 -0.24583,0.17212 -0.82718,0.4317 -1.2919,0.57685 -0.46474,0.1451 -1.23144,0.58725 -1.70376,0.98248 -0.47233,0.39523 -0.92505,0.70692 -1.00601,0.69265 -0.28493,-0.0502 -3.19647,2.1722 -4.11725,3.14279 -0.51239,0.5401 -1.10683,1.05428 -1.32094,1.14255 -0.21412,0.0883 -0.41859,0.32661 -0.45437,0.52959 -0.0358,0.20296 -0.25695,0.47846 -0.49146,0.61216 -0.23451,0.13366 -0.71142,0.92742 -1.05982,1.76379 -0.3484,0.8364 -0.8288,1.65752 -1.06758,1.82468 -0.44103,0.30883 -0.46621,0.45704 -1.11933,6.58361 -0.25949,2.4347 -0.22943,2.61415 1.31288,7.82579 1.70501,5.76128 2.17516,8.7133 2.4616,15.45598 0.12415,2.92265 0.0754,4.34096 -0.15492,4.50221 -0.23027,0.16123 -0.38645,-0.0268 -0.49574,-0.59678 z m -1.37598,-36.62616 c 0.86566,-1.58095 1.23135,-1.98623 3.89739,-4.31891 4.80591,-4.205 9.55019,-6.61156 15.47657,-7.85061 0.90008,-0.18815 2.71424,-0.60341 4.03147,-0.92273 6.77093,-1.6414 12.94449,-2.04165 18.0817,-1.17226 1.88946,0.31976 7.23131,2.31265 9.92838,3.70399 1.1034,0.5692 1.64703,0.73765 1.68472,0.52206 0.049,-0.28078 -2.3129,-4.96513 -4.30166,-8.53141 -0.38782,-0.69541 -1.16241,-2.48163 -1.72135,-3.96939 -0.55891,-1.48778 -1.20809,-3.06304 -1.44258,-3.50059 -0.23451,-0.43758 -0.59014,-1.37303 -0.79028,-2.07885 -0.20009,-0.70581 -0.69049,-1.62717 -1.08966,-2.04749 -0.3992,-0.42029 -0.70441,-0.8855 -0.67827,-1.0338 0.0261,-0.1483 -0.15851,-0.56386 -0.41031,-0.92351 -0.25183,-0.35963 -0.42478,-0.84149 -0.38434,-1.07077 0.0404,-0.22933 -0.15568,-0.45734 -0.43584,-0.50673 -0.5995,-0.10575 -1.65651,-1.92433 -2.23072,-3.83802 -0.22366,-0.74554 -0.6819,-1.91989 -1.01829,-2.60967 -0.87154,-1.78721 -3.65984,-8.27566 -3.62971,-8.44648 0.0468,-0.2656 -2.05195,-4.29912 -2.65705,-5.10642 -0.33002,-0.44029 -0.57355,-0.95078 -0.54117,-1.13442 0.0564,-0.31996 -3.20386,-6.48294 -4.50268,-8.51151 -0.34353,-0.53656 -2.74803,-4.12097 -5.34335,-7.96538 -4.8542,-7.19049 -7.28694,-11.36471 -7.70403,-13.21901 -0.69682,-3.09797 -3.70273,-5.69594 -7.33301,-6.3378 -2.36139,-0.4174 -5.59988,0.98538 -6.39862,2.77195 -0.9897,2.21362 -0.0475,6.79331 2.04417,9.936 0.70778,1.06341 1.11115,1.90448 0.89641,1.86902 -0.31686,-0.0518 -0.32077,3.6e-4 -0.0214,0.27846 0.60423,0.56094 -0.25208,0.30223 -1.0731,-0.32422 -1.08791,-0.83011 -3.10229,-4.28668 -3.90385,-6.69889 -0.46312,-1.39369 -1.39532,-3.13207 -2.65521,-4.95142 -1.58776,-2.29286 -2.17148,-2.91195 -3.20353,-3.3978 -3.83376,-1.80468 -8.95077,-0.43655 -10.46379,2.79771 -1.12292,2.40038 -0.56846,7.06423 1.27244,10.70369 0.67455,1.33354 1.5746,2.92351 2.00011,3.53322 0.69073,0.98981 0.70681,1.07381 0.15019,0.78388 -0.4843,-0.25225 -0.5899,-0.23201 -0.47321,0.0906 0.28914,0.79941 -1.39808,-1.59946 -3.13033,-4.45068 -0.96117,-1.58197 -1.70791,-3.10107 -1.65948,-3.37577 0.0485,-0.27472 -0.19613,-1.08354 -0.54277,-1.79752 -0.34696,-0.71394 -0.59303,-1.51255 -0.54679,-1.77474 0.0463,-0.2622 -0.12107,-0.85945 -0.3718,-1.32725 -0.2507,-0.4678 -0.40206,-0.88821 -0.33632,-0.93425 0.18571,-0.13002 0.77979,0.60519 1.47732,1.82834 l 0.63595,1.11513 -0.0774,-0.8734 c -0.0426,-0.48036 -0.0356,-1.18681 0.0156,-1.5699 0.13289,-0.99476 -2.71726,-3.12535 -4.90743,-3.66838 -1.41537,-0.35092 -1.86237,-0.309 -4.50787,0.4233 -3.44523,0.95358 -4.5139,1.51732 -5.85236,3.08728 -0.82173,0.96381 -1.04347,1.48206 -1.32767,3.10294 -0.43582,2.48902 -0.15369,3.33617 3.53592,10.59708 2.6654,5.24538 4.04227,8.40134 3.42531,7.8513 -0.15649,-0.1395 -0.86542,-1.38012 -1.57546,-2.75697 -0.71002,-1.37683 -1.42974,-2.5278 -1.59944,-2.55772 -0.18115,-0.0319 -0.16786,0.17745 0.0322,0.50718 0.34924,0.57561 0.95151,2.36534 0.89804,2.66856 -0.0735,0.41671 -0.56392,-0.38224 -0.89184,-1.45284 -0.4793,-1.56496 -1.71716,-3.25629 -3.80909,-5.20449 -2.44444,-2.27648 -3.40372,-3.41872 -4.26055,-5.07318 -0.7318,-1.41309 -3.31744,-5.41062 -6.98341,-10.79667 -1.93011,-2.83576 -3.456509,-4.163 -4.686556,-4.07506 -0.961107,0.0687 -2.649996,1.06955 -3.112122,1.84424 -1.294893,2.17077 1.61822,13.21629 5.759074,21.83645 1.627894,3.38883 5.975934,10.60353 7.461644,12.38105 1.90868,2.28359 3.51646,4.06107 3.70313,4.09399 0.27925,0.0491 0.82449,0.94409 0.76855,1.26136 -0.0891,0.50528 -0.51322,0.25247 -1.20102,-0.71585 -1.22455,-1.72405 -2.13588,-2.43126 -3.42617,-2.65877 -3.54076,-0.62433 -6.79186,1.08079 -6.22695,3.26588 0.19515,0.75488 1.99168,2.48884 3.72241,3.59282 1.58508,1.01107 13.30231,18.27987 15.90983,23.44786 2.35277,4.66312 4.14245,6.65132 8.74819,9.71869 4.75145,3.16443 10.52448,7.80976 12.11965,9.75223 3.02014,3.67763 6.52334,7.57416 6.77592,7.53669 0.14147,-0.0204 0.58574,-0.63815 0.98728,-1.3715 z M 94.519614,158.98093 c 0.06038,-0.34252 0.820096,-0.4592 1.830263,-0.28109 1.049079,0.18492 2.771321,-0.46967 3.095895,-1.17681 0.250929,-0.54668 1.168848,-0.60354 1.074158,-0.0665 -0.11011,0.62441 -1.577227,1.77875 -2.534326,1.99404 -1.101025,0.24765 -3.534332,-0.082 -3.465993,-0.46963 z"
       id="path2405"
       inkscape:connector-curvature="0" />
    <g
       id="g8590"
       style="stroke:#ffffff;stroke-width:2.5;stroke-miterlimit:4;stroke-dasharray:none;stroke-opacity:1">
      <path
         sodipodi:nodetypes="ccc"
         inkscape:connector-curvature="0"
         id="path8466"
         d="M 71.7789,140.07891 60.854167,154.125 72.224807,170.84652"
         style="fill:none;fill-opacity:1;stroke:#ffffff;stroke-width:2.5;stroke-linecap:butt;stroke-linejoin:miter;stroke-miterlimit:4;stroke-dasharray:none;stroke-opacity:1" />
      <path
         sodipodi:nodetypes="ccc"
         inkscape:connector-curvature="0"
         id="path8466-4"
         d="m 58.464383,143.59044 -8.19355,10.53456 8.52798,12.54114"
         style="fill:none;fill-opacity:1;stroke:#ffffff;stroke-width:2.5;stroke-linecap:butt;stroke-linejoin:miter;stroke-miterlimit:4;stroke-dasharray:none;stroke-opacity:1" />
      <path
         sodipodi:nodetypes="ccc"
         inkscape:connector-curvature="0"
         id="path8466-3"
         d="m 45.149866,147.10195 -5.462366,7.02305 5.68532,8.36076"
         style="fill:none;fill-opacity:1;stroke:#ffffff;stroke-width:2.5;stroke-linecap:butt;stroke-linejoin:miter;stroke-miterlimit:4;stroke-dasharray:none;stroke-opacity:1" />
    </g>
    <g
       id="g8598"
       transform="translate(3.3333332e-7,-7.9375033)"
       style="stroke:#ffffff;stroke-width:2.5;stroke-miterlimit:4;stroke-dasharray:none;stroke-opacity:1">
      <path
         sodipodi:nodetypes="ccc"
         inkscape:connector-curvature="0"
         id="path8466-7"
         d="m 83.849743,198.76276 14.04609,10.92474 16.721517,-11.37064"
         style="fill:none;fill-opacity:1;stroke:#ffffff;stroke-width:2.5;stroke-linecap:butt;stroke-linejoin:miter;stroke-miterlimit:4;stroke-dasharray:none;stroke-opacity:1" />
      <path
         sodipodi:nodetypes="ccc"
         inkscape:connector-curvature="0"
         id="path8466-4-0"
         d="m 87.361273,212.07728 10.53456,8.19355 12.541137,-8.52798"
         style="fill:none;fill-opacity:1;stroke:#ffffff;stroke-width:2.5;stroke-linecap:butt;stroke-linejoin:miter;stroke-miterlimit:4;stroke-dasharray:none;stroke-opacity:1" />
      <path
         sodipodi:nodetypes="ccc"
         inkscape:connector-curvature="0"
         id="path8466-3-7"
         d="m 90.872783,225.39181 7.02305,5.46236 8.360757,-5.68532"
         style="fill:none;fill-opacity:1;stroke:#ffffff;stroke-width:2.5;stroke-linecap:butt;stroke-linejoin:miter;stroke-miterlimit:4;stroke-dasharray:none;stroke-opacity:1" />
    </g>
    <g
       id="g8585"
       style="stroke:#ffffff;stroke-width:2.5;stroke-miterlimit:4;stroke-dasharray:none;stroke-opacity:1">
      <path
         sodipodi:nodetypes="ccc"
         inkscape:connector-curvature="0"
         id="path8466-5"
         d="m 104.91888,133.12904 -7.023047,-5.46237 -8.36076,5.68532"
         style="fill:none;fill-opacity:1;stroke:#ffffff;stroke-width:2.5;stroke-linecap:butt;stroke-linejoin:miter;stroke-miterlimit:4;stroke-dasharray:none;stroke-opacity:1" />
      <path
         sodipodi:nodetypes="ccc"
         inkscape:connector-curvature="0"
         id="path8466-4-2"
         d="m 108.43039,122.63105 -10.534557,-8.19355 -12.54114,8.52798"
         style="fill:none;fill-opacity:1;stroke:#ffffff;stroke-width:2.5;stroke-linecap:butt;stroke-linejoin:miter;stroke-miterlimit:4;stroke-dasharray:none;stroke-opacity:1" />
      <path
         sodipodi:nodetypes="ccc"
         inkscape:connector-curvature="0"
         id="path8466-3-5"
         d="M 111.94193,112.13307 97.895833,101.20833 81.17431,112.57897"
         style="fill:none;fill-opacity:1;stroke:#ffffff;stroke-width:2.5;stroke-linecap:butt;stroke-linejoin:miter;stroke-miterlimit:4;stroke-dasharray:none;stroke-opacity:1" />
    </g>
    <g
       id="g8606"
       transform="translate(0,2.64583)"
       style="stroke:#ffffff;stroke-width:2.5;stroke-miterlimit:4;stroke-dasharray:none;stroke-opacity:1">
      <path
         sodipodi:nodetypes="ccc"
         inkscape:connector-curvature="0"
         id="path8466-5-5"
         d="m 126.8293,158.50222 5.46237,-7.02305 -5.68532,-8.36076"
         style="fill:none;fill-opacity:1;stroke:#ffffff;stroke-width:2.5;stroke-linecap:butt;stroke-linejoin:miter;stroke-miterlimit:4;stroke-dasharray:none;stroke-opacity:1" />
      <path
         sodipodi:nodetypes="ccc"
         inkscape:connector-curvature="0"
         id="path8466-4-2-1"
         d="m 137.32728,162.01373 8.19355,-10.53456 -8.52798,-12.54114"
         style="fill:none;fill-opacity:1;stroke:#ffffff;stroke-width:2.5;stroke-linecap:butt;stroke-linejoin:miter;stroke-miterlimit:4;stroke-dasharray:none;stroke-opacity:1" />
      <path
         sodipodi:nodetypes="ccc"
         inkscape:connector-curvature="0"
         id="path8466-3-5-2"
         d="M 147.82526,165.52527 158.75,151.47917 147.37936,134.75765"
         style="fill:none;fill-opacity:1;stroke:#ffffff;stroke-width:2.5;stroke-linecap:butt;stroke-linejoin:miter;stroke-miterlimit:4;stroke-dasharray:none;stroke-opacity:1" />
    </g>
  </g>
</svg>
