<?xml version="1.0" encoding="UTF-8"?>
<!-- Created with Inkscape (http://www.inkscape.org/) -->
<!-- Saved as "optimized" sgv file type - others can't be handled by AS import -->
<svg id="svg10" width="192" height="192" enable-background="new" version="1.1" viewBox="0 0 192 192" xmlns="http://www.w3.org/2000/svg" xmlns:cc="http://creativecommons.org/ns#" xmlns:dc="http://purl.org/dc/elements/1.1/" xmlns:osb="http://www.openswatchbook.org/uri/2009/osb" xmlns:rdf="http://www.w3.org/1999/02/22-rdf-syntax-ns#" xmlns:xlink="http://www.w3.org/1999/xlink">
 <metadata id="metadata16">
  <rdf:RDF>
   <cc:Work rdf:about="">
    <dc:format>image/svg+xml</dc:format>
    <dc:type rdf:resource="http://purl.org/dc/dcmitype/StillImage"/>
    <dc:title/>
   </cc:Work>
  </rdf:RDF>
 </metadata>
 <defs id="defs14">
  <linearGradient id="linearGradient12677" x1="60.045" x2="118.98" y1="98.876" y2="97.326" gradientTransform="matrix(1.0182 0 0 1.0154 -1.7416 -.69711)" gradientUnits="userSpaceOnUse">
   <stop id="stop12671" stop-color="#d4aa00" offset="0"/>
   <stop id="stop12673" stop-color="#d4aa00" stop-opacity="0" offset="1"/>
  </linearGradient>
  <linearGradient id="linearGradient12717" x1="114.09" x2="186" y1="100.09" y2="98.038" gradientTransform="matrix(1.0293 0 0 1.0223 -3.8834 -1.9097)" gradientUnits="userSpaceOnUse">
   <stop id="stop12711" offset="0"/>
   <stop id="stop12713" stop-opacity="0" offset="1"/>
  </linearGradient>
  <linearGradient id="linearGradient12727" x1="59.395" x2="119.4" y1="99.697" y2="98.123" gradientUnits="userSpaceOnUse">
   <stop id="stop12721" offset="0"/>
   <stop id="stop12723" stop-opacity="0" offset="1"/>
  </linearGradient>
  <linearGradient id="linearGradient12735" x1="113.55" x2="187.56" y1="100.41" y2="98.312" gradientUnits="userSpaceOnUse">
   <stop id="stop12729" stop-color="#d4aa00" offset="0"/>
   <stop id="stop12731" stop-color="#d4aa00" stop-opacity="0" offset="1"/>
  </linearGradient>
 </defs>
 <rect id="rect8322" transform="matrix(.99999 -.004258 .004501 .99999 0 0)" x="11.286" y="11.324" width="170.46" height="170.2" rx="11.534" ry="11.431" fill="#efa" fill-rule="evenodd"/>
 <g id="layer2" fill-rule="evenodd" stroke-linejoin="round" stroke-miterlimit="5.9">
  <path id="path12631" d="m91.784 145.56c-4.8293-1.8962-12.171-4.013-16.024-4.9673-12.141-3.0068-23.072-3.0906-42.997-0.32923-1.9829 0.27479-3.6203 0.48469-3.6387 0.46642-0.01832-0.0183-0.11976-20.292-0.22543-45.053l-0.19214-45.02 5.8338-1.3916c13.198-3.1483 18.04-3.8707 25.997-3.8786 6.3309-0.0063 8.0714 0.1852 14.288 1.5717 4.2443 0.94664 12.075 3.0339 19.488 5.3012l1.8826 0.5758-0.09764 47.717c-0.07794 38.088 0.3589 46.482 0.09299 46.459-0.18361-0.0157-2.5709-0.73068-4.407-1.4516z" fill="url(#linearGradient12677)" stroke="url(#linearGradient12727)" stroke-width=".26563" style="paint-order:normal"/>
  <path id="path12633" d="m96.128 99.923 0.06824-47.09 2.8347-1.046c5.6662-2.0908 13.265-4.5139 17.05-5.4369 5.8014-1.4146 8.5101-1.7962 13.862-1.9526 8.5432-0.24977 15.154 0.84634 31.114 5.1587l2.7672 0.74769v45.003c0 35.824-0.0265 45.463-0.0294 45.248-0.1856-2.3e-4 -3.136-0.65855-6.1799-1.1635-7.6875-1.2752-11.657-1.7466-16.916-2.0093-12.579-0.62822-22.853 1.4207-40.136 8.0042-2.3497 0.89502-4.3878 1.6909-4.3878 1.6273l-0.04735-47.09z" fill="url(#linearGradient12735)" stroke="url(#linearGradient12717)" stroke-width=".26798" style="paint-order:normal"/>
 </g>
 <g id="layer1">
  <path id="path5995" d="m83.52 73.006-0.27933 46.648 40.223-23.743z" fill="#fff" stroke="#000" stroke-linejoin="round" stroke-width="1px" style="paint-order:normal"/>
 </g>
</svg>
